#N canvas 317 80 826 623 10;
#X obj 465 534 dac~;
#X obj 345 136 rpole~ 1;
#X obj 346 317 lop~ 4000;
#X obj 346 292 expr~ ((($v1&0xff)^0x80)-128)/128;
#X obj 345 111 sig~ 0.781405;
#X floatatom 344 79 5 0 0 0 - - -;
#X obj 346 245 bytebeat~;
#X obj 314 55 hsl 300 15 -10 10 0 0 empty empty empty -2 -8 0 10 -262144
-1 -1 15800 1;
#X obj 421 147 hsl 128 15 1 94 0 0 empty empty empty -2 -8 0 10 -262144
-1 -1 4182 1;
#X floatatom 385 194 5 0 0 0 - - -;
#X msg 358 219 formula \$1;
#X obj 403 173 f;
#X obj 345 24 r speed;
#X obj 404 425 freeverb~;
#X obj 39 24 loadbang;
#X obj 324 8 r control0;
#X obj 281 402 clip~ -1 1;
#X obj 313 431 loadbang;
#X obj 318 481 metro 100;
#X text 317 453 1;
#X msg 317 453 1;
#N canvas 0 22 450 300 (subpatch) 0;
#X array scope0 256 float 2;
#X coords 0 1 256 -1 200 140 1 0 0;
#X restore 49 390 graph;
#X obj 279 505 tabwrite~ scope0;
#X obj 472 80 r control2;
#X obj 643 68 r control1;
#X msg 565 333 wet \$1;
#X msg 613 333 dry \$1;
#X obj 563 281 hsl 128 15 0 1 0 0 empty empty empty -2 -8 0 10 -262144
-1 -1 2600 1;
#N canvas 1 80 450 300 inv 0;
#X obj 154 69 inlet;
#X obj 154 179 outlet;
#X msg 154 124 1;
#X obj 154 97 t b f;
#X obj 154 151 -;
#X connect 0 0 3 0;
#X connect 2 0 4 0;
#X connect 3 0 2 0;
#X connect 3 1 4 1;
#X connect 4 0 1 0;
#X restore 613 306 pd inv;
#X floatatom 671 331 5 0 0 0 - - -;
#X text 556 262 dry;
#X text 681 261 wet;
#X floatatom 572 307 5 0 0 0 - - -;
#X obj 568 168 loadbang;
#X obj 637 135 abs;
#X obj 636 220 / 7;
#X obj 593 196 t f b;
#X floatatom 568 222 5 0 0 0 - - -;
#X obj 601 261 line 0 200;
#X obj 568 240 pack f 500;
#X msg 559 196 0;
#X obj 690 217 print;
#X obj 471 102 * 94;
#X obj 453 122 i;
#X msg 40 61 \; speed 0 \; control2 0.5 \; control1 0 \; \;;
#X obj 415 499 clip~ -1 1;
#X obj 415 464 hip~ 1;
#X obj 488 499 clip~ -1 1;
#X obj 488 464 hip~ 1;
#X obj 346 343 *~ 0.5;
#X connect 1 0 6 0;
#X connect 2 0 49 0;
#X connect 3 0 2 0;
#X connect 4 0 1 0;
#X connect 5 0 4 0;
#X connect 6 0 3 0;
#X connect 7 0 5 0;
#X connect 8 0 11 0;
#X connect 9 0 10 0;
#X connect 10 0 6 0;
#X connect 11 0 9 0;
#X connect 12 0 7 0;
#X connect 13 0 46 0;
#X connect 13 1 48 0;
#X connect 14 0 44 0;
#X connect 15 0 7 0;
#X connect 16 0 22 0;
#X connect 17 0 20 0;
#X connect 18 0 22 0;
#X connect 20 0 18 0;
#X connect 23 0 42 0;
#X connect 24 0 34 0;
#X connect 25 0 13 0;
#X connect 26 0 13 0;
#X connect 27 0 25 0;
#X connect 27 0 28 0;
#X connect 27 0 32 0;
#X connect 28 0 26 0;
#X connect 28 0 29 0;
#X connect 33 0 40 0;
#X connect 34 0 27 0;
#X connect 35 0 36 0;
#X connect 35 0 41 0;
#X connect 36 0 37 0;
#X connect 36 1 37 0;
#X connect 37 0 39 0;
#X connect 38 0 27 0;
#X connect 39 0 38 0;
#X connect 40 0 27 0;
#X connect 42 0 43 0;
#X connect 43 0 8 0;
#X connect 45 0 0 0;
#X connect 46 0 45 0;
#X connect 47 0 0 1;
#X connect 48 0 47 0;
#X connect 49 0 16 0;
#X connect 49 0 13 1;
#X connect 49 0 13 0;
